<?xml version="1.0" encoding="utf-8"?>
<!-- Generator: Adobe Illustrator 17.0.0, SVG Export Plug-In . SVG Version: 6.00 Build 0)  -->
<!DOCTYPE svg PUBLIC "-//W3C//DTD SVG 1.1//EN" "http://www.w3.org/Graphics/SVG/1.1/DTD/svg11.dtd">
<svg version="1.1" id="Layer_1" xmlns="http://www.w3.org/2000/svg" xmlns:xlink="http://www.w3.org/1999/xlink" x="0px" y="0px"
	 width="600px" height="600px" viewBox="0 0 600 600" style="enable-background:new 0 0 600 600;" xml:space="preserve">
<style type="text/css">
	.st0{fill:#FEBF00;}
</style>
<g>
	<path class="st0" d="M340.68,262.24c0.9,0.63,1.96,0.16,2.95,0.41c1.7,0.42,3.39,0.85,4.96,1.64c0.44,0.22,0.66,0.21,0.95-0.21
		c0.61-0.88,1.42-1.2,2.54-1.15c2.36,0.1,4.72,0.03,7.08,0.03c1.23,0,2.16,0.91,2.16,2.12c0.01,4.68,0.01,9.36,0,14.04
		c0,1.12-0.71,1.84-1.82,1.84c-3.16,0.01-6.32,0-9.48,0.01c-0.54,0-0.81,0-1.01-0.73c-0.53-1.97-1.31-3.84-3.37-4.82
		c-2.44-1.16-5.02-0.24-5.92,2.28c-1.13,3.19-1.44,6.46-1.03,9.84c0.18,1.48,0.32,2.96,0.79,4.37c0.56,1.66,1.47,3.13,3.35,3.43
		c2.44,0.38,4.1-0.54,5.28-2.66c0.74-1.34,1.1-2.81,1.43-4.28c0.37-1.62,1.52-2.18,3.1-1.57c3.12,1.19,6.24,2.37,9.39,3.47
		c0.6,0.21,0.81,0.47,0.7,1c-0.96,4.8-2.92,9.08-6.7,12.33c-2.6,2.23-5.65,3.56-9.07,3.98c-1.64,0.21-3.29,0.51-4.93,0.45
		c-3.91-0.14-7.82-0.55-11.43-2.24c-3.67-1.71-6.39-4.47-8.46-7.92c-1.84-3.07-2.71-6.38-3.13-9.92c-0.56-4.78,0.15-9.36,2.1-13.64
		c2.67-5.86,7.11-9.93,13.49-11.56c1.11-0.28,2.31-0.13,3.41-0.52C338.92,262.24,339.8,262.24,340.68,262.24z"/>
	<path class="st0" d="M99.24,274.96c0.47-1.11,0.32-2.34,0.7-3.48c1.53-4.56,4.72-7.32,9.29-8.5c3.56-0.92,7.06-0.53,10.39,1.06
		c0.51,0.24,0.84,0.3,1.16-0.18c0.56-0.82,1.34-0.95,2.28-0.92c2.24,0.06,4.48,0.01,6.72,0.02c1.14,0,2.1,0.93,2.1,2.06
		c0.01,3.6,0.01,7.2,0,10.8c0,1.04-0.98,2.01-2.02,2.02c-2.64,0.01-5.28-0.04-7.92,0.03c-0.92,0.02-1.32-0.3-1.58-1.14
		c-0.52-1.66-1.18-3.24-3.09-3.78c-0.11-0.03-0.22-0.14-0.32-0.13c-0.81,0.09-1.92-0.44-2.3,0.68c-0.36,1.07,0.57,1.5,1.34,1.93
		c3.83,2.16,7.9,3.92,11.48,6.5c3.46,2.5,5.39,5.96,5.9,10.27c0.31,2.61-0.01,5.06-1.09,7.41c-1.87,4.1-5.03,6.72-9.43,7.73
		c-3.73,0.86-7.37,0.49-10.83-1.19c-0.47-0.23-0.8-0.23-1.09,0.21c-0.6,0.89-1.45,1.05-2.48,1.02c-2.16-0.07-4.32-0.02-6.48-0.02
		c-1.32,0-2.23-0.88-2.24-2.16c0-3.92,0-7.84,0-11.76c0-1.22,0.92-2.15,2.12-2.15c2.68-0.01,5.36,0.02,8.04-0.02
		c0.72-0.01,1.02,0.2,1.23,0.92c0.35,1.18,0.84,2.31,1.73,3.26c1.09,1.16,2.43,1.21,3.82,1.09c0.46-0.04,0.78-0.38,0.8-0.89
		c0.04-0.69-0.04-1.3-0.71-1.74c-2.57-1.73-5.45-2.87-8.17-4.31c-3.42-1.81-6.46-4.04-8.06-7.73c-0.57-1.32-1.1-2.67-1.06-4.16
		c0.01-0.22,0.09-0.49-0.23-0.59C99.24,276.4,99.24,275.68,99.24,274.96z"/>
	<path class="st0" d="M295.32,338.56c-0.87-1.83-2.12-3.41-3.16-5.13c-1.05-1.73-2.23-3.37-3.55-5.35c0,2.11,0,3.93,0,5.76
		c0,0.42,0.3,0.44,0.57,0.39c0.83-0.14,0.91,0.31,0.87,0.97c-0.06,0.99,0.31,2.27-0.18,2.9c-0.53,0.67-1.86,0.17-2.85,0.21
		c-0.96,0.04-1.92-0.04-2.88,0.02c-0.71,0.04-0.89-0.24-0.84-0.89c0.05-0.64,0.01-1.28,0.01-1.92c0-0.7-0.21-1.52,1.01-1.3
		c0.5,0.09,0.43-0.34,0.43-0.65c0-2.6-0.01-5.19,0.01-7.79c0-0.52-0.16-0.75-0.68-0.66c-0.66,0.11-0.77-0.22-0.78-0.81
		c-0.09-3.27-0.1-3.27,3.12-3.27c1.2,0,2.4,0.07,3.59-0.02c0.83-0.07,1.29,0.27,1.69,0.9c1.68,2.64,3.37,5.28,5.29,7.87
		c0-1.37,0-2.74,0-4.11c0-0.22,0.05-0.58-0.29-0.53c-1.16,0.14-0.9-0.67-0.9-1.29c-0.01-2.81-0.01-2.81,2.84-2.81
		c0.32,0,0.64-0.02,0.96,0c0.86,0.06,2.27-0.36,2.48,0.17c0.41,1.04,0.17,2.34,0.19,3.53c0.01,0.43-0.32,0.42-0.59,0.37
		c-0.85-0.14-0.85,0.36-0.85,0.98c0.02,4.16,0.01,8.31,0.01,12.47C299,338.56,297.16,338.56,295.32,338.56z"/>
	<path class="st0" d="M388.92,338.56c-0.83-0.55-1.88-0.51-2.73-1.11c-1.42-1-2.09-2.28-2.34-3.98c-0.37-2.5-0.11-5-0.2-7.5
		c-0.02-0.51,0.02-0.99-0.73-0.86c-0.36,0.06-0.5-0.15-0.48-0.49c0-0.08,0-0.16,0-0.24c-0.18-3.34-0.18-3.34,3.15-3.34
		c1.48,0,2.96,0.02,4.44-0.01c0.6-0.02,0.87,0.12,0.83,0.78c-0.06,0.88-0.01,1.76-0.02,2.64c0,0.23,0.06,0.63-0.18,0.62
		c-1.13-0.03-0.76,0.79-0.77,1.33c-0.01,2.18-0.08,4.37,0.22,6.54c0.12,0.85,0.48,1.42,1.34,1.53c0.86,0.12,1.37-0.26,1.59-1.16
		c0.11-0.42,0.2-0.83,0.2-1.26c0-1.88,0.02-3.76-0.01-5.63c-0.01-0.5,0.29-1.09-0.57-1.44c-0.4-0.16-0.12-1.11-0.13-1.7
		c-0.02-2.23-0.01-2.23,2.22-2.23c1,0,2,0.04,3-0.01c0.66-0.04,0.83,0.21,0.79,0.82c-0.05,0.64,0,1.28-0.01,1.92
		c-0.02,0.65,0.31,1.5-0.94,1.4c-0.42-0.03-0.25,0.51-0.25,0.79c-0.02,1.84,0.06,3.68-0.03,5.51c-0.06,1.35-0.19,2.71-0.8,3.98
		c-0.8,1.65-2.1,2.55-3.86,2.87c-0.17,0.03-0.31,0.05-0.35,0.24C391.16,338.56,390.04,338.56,388.92,338.56z"/>
	<path class="st0" d="M351.48,338.56c-1.13-0.53-2.4-0.62-3.5-1.38c-3.2-2.22-4.03-5.77-3.65-9.02c0.24-2.02,1.15-3.83,2.57-5.26
		c1.9-1.92,4.33-2.41,6.95-1.99c1.08,0.17,2.08,0.59,3.18,1.41c-0.34-1.32,0.36-1.3,1.17-1.29c2.64,0.03,2.64,0.01,2.64,2.68
		c0,0.92-0.03,1.84,0.01,2.76c0.03,0.59-0.11,0.91-0.78,0.83c-0.39-0.05-0.8-0.02-1.2-0.01c-1.18,0.04-2.28,0.18-2.9-1.31
		c-0.4-0.96-1.49-1.33-2.54-1.06c-0.93,0.24-1.48,0.91-1.74,1.89c-0.58,2.18-0.6,4.32,0.34,6.39c0.75,1.66,2.94,1.77,4.02,0.3
		c0.6-0.82,0.95-1.69,0.98-2.78c1.29,0.47,2.55,0.92,3.8,1.39c0.38,0.14,0.47,0.31,0.33,0.8c-0.88,3.07-2.7,5.05-5.97,5.48
		c-0.05,0.01-0.08,0.12-0.12,0.18C353.88,338.56,352.68,338.56,351.48,338.56z"/>
	<path class="st0" d="M241.08,286.38c0,2.57,0.01,5.15-0.01,7.72c-0.01,0.67,0.43,0.53,0.8,0.54c2.26,0.09,2.56,0.4,2.56,2.66
		c0,2.64,0,5.28,0,7.92c0,1.2-0.93,2.14-2.14,2.14c-4.8,0-9.6,0-14.4,0c-1.3,0-2.18-0.9-2.18-2.22c0-2.76,0-5.52,0-8.28
		c0-1.32,0.89-2.29,2.18-2.2c1.06,0.08,1.21-0.31,1.21-1.26c-0.05-5.52-0.04-11.04,0-16.56c0.01-0.9-0.17-1.26-1.15-1.19
		c-1.31,0.09-2.22-0.86-2.23-2.15c-0.01-2.8-0.01-5.6,0-8.4c0-1.21,0.93-2.15,2.13-2.15c5.84,0,11.68,0.01,17.52-0.01
		c0.69,0,1.12,0.17,1.53,0.81c1.87,3.01,3.82,5.97,5.76,8.93c1.93,2.95,3.89,5.88,5.95,8.99c0-1.93-0.02-3.67,0.01-5.4
		c0.01-0.61-0.32-0.59-0.75-0.61c-2.02-0.08-2.62-0.72-2.62-2.73c0-2.6,0-5.2,0-7.8c0-1.3,0.9-2.18,2.22-2.18c4.68,0,9.36,0,14.04,0
		c1.32,0,2.22,0.88,2.22,2.18c0,2.8,0.01,5.6,0,8.4c0,1.21-0.94,2.2-2.14,2.12c-0.99-0.07-1.25,0.2-1.25,1.22
		c0.04,9.52,0.03,19.03,0.03,28.55c0,1.58-0.81,2.41-2.35,2.41c-3.8,0-7.6-0.01-11.4,0.01c-0.77,0.01-1.25-0.17-1.72-0.9
		c-3.94-6.03-7.96-12.01-11.94-18.01c-0.57-0.86-1.09-1.75-1.63-2.63C241.24,286.33,241.16,286.35,241.08,286.38z"/>
	<path class="st0" d="M295.8,262.96c5.88,0,11.76,0,17.64,0c1.4,0,2.28,0.86,2.28,2.24c0,3.88,0,7.76,0,11.64
		c0,1.31-0.89,2.2-2.2,2.2c-2.88,0-5.76,0.01-8.64,0c-1.21,0-2.19-0.94-2.09-2.16c0.08-1.03-0.26-1.29-1.25-1.22
		c-1.39,0.09-2.8,0.01-4.2,0.03c-0.28,0-0.76-0.19-0.78,0.28c-0.06,1-0.05,2-0.01,3c0.02,0.5,0.49,0.31,0.76,0.31
		c1.6,0.02,3.2,0,4.8,0.01c1.14,0.01,2.09,0.93,2.09,2.07c0.01,2.36,0.01,4.72,0,7.08c0,1.2-0.93,2.13-2.15,2.13
		c-1.6,0.01-3.2,0.02-4.8-0.01c-0.58-0.01-0.72,0.17-0.75,0.74c-0.15,3.35-0.17,3.35,3.17,3.35c0.36,0,0.72,0,1.08,0
		c1.83,0,1.8,0,2.02-1.85c0.1-0.86,0.66-1.48,1.55-1.49c3.28-0.04,6.56-0.05,9.84,0.01c0.91,0.02,1.54,0.66,1.55,1.6
		c0.03,4.2,0.02,8.4,0.01,12.6c0,0.86-1.05,1.85-1.94,1.85c-12.08,0.01-24.16,0.01-36.24,0c-0.89,0-1.89-1.01-1.89-1.9
		c-0.01-3.04-0.02-6.08,0-9.12c0.01-1.04,0.79-1.75,1.96-1.68c0.93,0.06,1.19-0.22,1.18-1.17c-0.05-5.56-0.04-11.12-0.01-16.68
		c0-0.8-0.05-1.24-1.06-1.17c-1.15,0.09-2.07-0.91-2.08-2.05c-0.01-2.84-0.01-5.68,0-8.52c0-1.21,0.93-2.12,2.16-2.12
		C283.8,262.96,289.8,262.96,295.8,262.96z"/>
	<path class="st0" d="M156.09,262.96c6.12,0,12.24,0,18.35,0c1.47,0,2.32,0.85,2.32,2.32c0,5.28,0,10.56,0,15.83
		c0,1.38-0.88,2.24-2.28,2.24c-1.8,0-3.6,0-5.4,0c-1.23,0-2.16-0.91-2.16-2.12c-0.01-1.6-0.05-3.2,0.02-4.8
		c0.03-0.81-0.4-0.8-0.95-0.77c-0.5,0.02-1.01-0.15-1,0.72c0.03,5.84,0.03,11.68,0,17.51c0,0.71,0.32,0.74,0.87,0.74
		c0.69,0,1.39-0.19,1.98,0.5c0.37,0.43,0.54,0.82,0.54,1.37c-0.02,2.92,0,5.84-0.01,8.76c0,1.15-0.93,2.09-2.07,2.09
		c-6.8,0.01-13.59,0.01-20.39,0c-1.04,0-2.01-0.98-2.01-2.02c-0.01-2.92-0.01-5.84,0-8.76c0-1.27,0.69-2.02,1.96-1.91
		c1.16,0.1,1.44-0.25,1.43-1.41c-0.07-5.52-0.04-11.04-0.02-16.55c0-0.7-0.06-1.06-0.93-1.06c-0.89,0-1.05,0.3-1.02,1.1
		c0.06,1.36,0.02,2.72,0.02,4.08c0,1.81-0.75,2.54-2.58,2.54c-1.6,0-3.2,0-4.8,0c-1.66,0-2.46-0.78-2.46-2.42
		c0-5.24,0-10.48,0-15.71c0-1.39,0.87-2.27,2.25-2.27C143.85,262.96,149.97,262.96,156.09,262.96z"/>
	<path class="st0" d="M433.89,307.36c-5.92,0-11.84,0-17.76,0c-1.38,0-2.25-0.88-2.25-2.27c0-2.72,0-5.44,0-8.16
		c0-1.41,0.87-2.38,2.23-2.26c1.21,0.11,1.41-0.32,1.4-1.44c-0.06-5.44-0.05-10.88,0-16.32c0.01-0.96-0.17-1.32-1.22-1.26
		c-1.57,0.1-2.41-0.79-2.41-2.33c0-2.76-0.01-5.52,0-8.28c0-1.15,0.93-2.08,2.07-2.08c7-0.01,14,0,21,0c1.21,0,2.12,0.93,2.13,2.15
		c0.01,2.8,0.01,5.6,0,8.4c0,1.28-0.91,2.16-2.24,2.17c-1.6,0.01-1.6,0.01-1.6,1.66c0,5.4,0.02,10.8-0.02,16.2
		c-0.01,0.88,0.18,1.18,1.1,1.13c1.6-0.08,3.2-0.06,4.8-0.01c0.7,0.02,0.88-0.22,0.85-0.88c-0.05-1.2-0.02-2.4-0.01-3.6
		c0-1.39,0.87-2.25,2.27-2.26c2.48,0,4.96,0,7.44,0c1.41,0,2.29,0.86,2.29,2.23c0,5,0,10,0,15c0,1.32-0.89,2.21-2.19,2.21
		C445.81,307.36,439.85,307.36,433.89,307.36z"/>
	<path class="st0" d="M201.09,325.02c-0.99,2.75-1.97,5.5-2.96,8.25c-0.54,1.49-1.18,2.96-1.61,4.48c-0.28,0.98-0.94,0.52-1.41,0.53
		c-0.48,0.01-1.08,0.39-1.39-0.56c-1.17-3.49-2.48-6.93-3.74-10.39c-0.27-0.75-0.54-1.51-0.97-2.26c0,2.88,0,5.75,0,8.63
		c0,0.3,0.03,0.59,0.43,0.53c0.81-0.12,0.81,0.38,0.77,0.94c-0.08,1.02,0.44,2.38-0.22,2.97c-0.57,0.5-1.9,0.15-2.89,0.18
		c-0.08,0-0.16,0.01-0.24,0c-0.94-0.09-2.38,0.43-2.71-0.2c-0.47-0.92-0.16-2.25-0.18-3.4c0-0.19,0-0.48,0.26-0.45
		c1.25,0.15,0.93-0.74,0.93-1.39c0.01-2.32,0.01-4.64,0-6.95c0-0.28,0.18-0.8-0.28-0.77c-1.28,0.1-0.9-0.8-0.9-1.42
		c-0.02-2.7-0.01-2.7,2.71-2.7c2.08,0,4.16,0.03,6.24-0.02c0.71-0.01,1.02,0.19,1.24,0.91c0.58,1.88,1.29,3.72,2.03,5.8
		c0.77-2.05,1.53-3.88,2.14-5.77c0.22-0.68,0.46-0.95,1.19-0.94c2.68,0.04,5.36,0.05,8.03,0c0.78-0.02,0.96,0.25,0.9,0.95
		c-0.06,0.67-0.01,1.36-0.01,2.04c-0.01,0.56,0.2,1.28-0.82,1.12c-0.43-0.06-0.37,0.32-0.37,0.59c0,2.64,0,5.28,0,7.91
		c0,0.26-0.06,0.65,0.37,0.59c1.03-0.15,0.84,0.55,0.83,1.12c-0.02,0.95,0.3,2.19-0.18,2.77c-0.51,0.62-1.8,0.17-2.74,0.19
		c-1.56,0.04-3.12-0.02-4.68,0.02c-0.62,0.02-0.86-0.15-0.81-0.8c0.05-0.76,0.02-1.52,0.01-2.28c-0.01-0.56-0.12-1.15,0.8-1.03
		c0.52,0.07,0.4-0.39,0.4-0.68c0.01-2.83,0-5.66,0-8.49C201.19,325.04,201.14,325.03,201.09,325.02z"/>
	<path class="st0" d="M430.2,321.04c2.28,0,4.56,0.03,6.84-0.02c0.68-0.01,0.89,0.2,0.86,0.87c-0.05,1.28-0.06,2.56,0,3.84
		c0.03,0.72-0.24,0.88-0.89,0.84c-0.72-0.05-1.44-0.02-2.16-0.01c-0.71,0.01-1.1,0.05-1.41-0.98c-0.33-1.1-1.85-0.24-2.83-0.46
		c-0.54-0.12-0.7,0.18-0.66,0.68c0.03,0.4,0.04,0.8,0,1.2c-0.05,0.55,0.12,0.77,0.72,0.77c0.78,0.01,1.87-0.4,2.26,0.18
		c0.39,0.58,0.07,1.62,0.16,2.45c0.09,0.83-0.26,1.06-1.01,0.96c-0.24-0.03-0.49,0.03-0.72-0.01c-1.12-0.2-1.46,0.19-1.46,1.38
		c0,1.25,0.32,1.71,1.57,1.52c0.51-0.08,1.04-0.02,1.56-0.01c0.32,0,0.59-0.07,0.52-0.45c-0.2-1.08,0.48-1.04,1.2-0.99
		c1.02,0.07,2.38-0.44,2.97,0.23c0.5,0.58,0.16,1.9,0.16,2.9c0.01,2.39,0,2.39-2.43,2.39c-4.04,0-8.08-0.02-12.11,0.02
		c-0.8,0.01-1.17-0.13-1.08-1.02c0.08-0.71,0.04-1.44,0.01-2.16c-0.02-0.58-0.01-1.03,0.79-0.93c0.51,0.07,0.42-0.36,0.42-0.66
		c0.01-2.6,0-5.2,0-7.8c0-0.31,0.06-0.71-0.44-0.64c-0.83,0.12-0.8-0.4-0.76-0.95c0.08-1.02-0.45-2.38,0.23-2.97
		c0.58-0.5,1.9-0.16,2.89-0.17C427,321.03,428.6,321.04,430.2,321.04z"/>
	<path class="st0" d="M239.89,321.04c2.4,0,4.8,0.04,7.19-0.02c0.8-0.02,1,0.23,0.98,1c-0.05,1.76-0.04,3.52,0,5.27
		c0.02,0.68-0.09,0.97-0.89,0.97c-2.2-0.01-2.25,0.03-2.22-2.24c0.01-0.9-0.39-0.89-1.06-0.93c-0.78-0.05-0.92,0.25-0.91,0.95
		c0.04,2.44,0.03,4.87,0,7.31c-0.01,0.63,0.11,1,0.83,0.88c0.58-0.1,0.61,0.26,0.63,0.71c0.18,3.37,0.19,3.37-3.14,3.37
		c-1.72,0-3.44-0.03-5.15,0.02c-0.7,0.02-0.9-0.22-0.85-0.88c0.05-0.68,0.04-1.36,0-2.04c-0.03-0.73-0.06-1.38,1.01-1.19
		c0.5,0.09,0.44-0.33,0.44-0.64c0-2.6-0.03-5.19,0.02-7.79c0.02-0.92-0.58-0.64-1.04-0.67c-0.49-0.04-1.01-0.1-0.89,0.68
		c0.01,0.08,0,0.16,0,0.24c-0.04,2.26-0.04,2.23-2.26,2.21c-0.66-0.01-0.89-0.17-0.87-0.86c0.05-1.84,0.05-3.68,0-5.51
		c-0.02-0.69,0.21-0.87,0.87-0.86C235.01,321.06,237.45,321.04,239.89,321.04z"/>
	<path class="st0" d="M372.1,321.04c2.44,0,4.87,0.02,7.31-0.01c0.65-0.01,0.9,0.14,0.88,0.85c-0.05,1.88-0.04,3.76,0,5.63
		c0.01,0.57-0.17,0.73-0.74,0.75c-2.35,0.09-2.4,0.12-2.37-2.2c0.01-0.85-0.3-0.95-1.03-0.96c-0.73-0.01-0.95,0.18-0.94,0.93
		c0.05,2.44,0.03,4.87,0.01,7.31c-0.01,0.6,0.04,1.04,0.8,0.91c0.55-0.09,0.68,0.19,0.66,0.69c-0.03,0.88-0.03,1.76,0,2.64
		c0.02,0.54-0.1,0.78-0.71,0.77c-2.56-0.03-5.11-0.03-7.67,0c-0.56,0.01-0.79-0.13-0.75-0.73c0.05-0.72,0.02-1.44,0.01-2.16
		c-0.02-0.69-0.13-1.41,0.98-1.21c0.48,0.09,0.47-0.29,0.47-0.62c0-2.64-0.02-5.27,0.01-7.91c0.01-0.75-0.49-0.61-0.89-0.56
		c-0.39,0.04-1.05-0.35-1.04,0.52c0,0.12,0,0.24,0,0.36c-0.05,2.42-0.05,2.4-2.47,2.24c-0.55-0.04-0.66-0.22-0.65-0.71
		c0.02-1.92,0.04-3.84-0.01-5.75c-0.02-0.69,0.27-0.77,0.85-0.76C367.23,321.05,369.66,321.04,372.1,321.04z"/>
	<path class="st0" d="M254.87,338.32c-1.2,0-2.41-0.07-3.6,0.02c-0.96,0.08-1.17-0.29-1.08-1.14c0.07-0.63,0.04-1.28,0.01-1.92
		c-0.03-0.66-0.01-1.21,0.9-1.05c0.54,0.1,0.55-0.28,0.55-0.67c-0.01-2.6-0.02-5.2,0.01-7.8c0.01-0.55-0.21-0.72-0.7-0.64
		c-0.7,0.12-0.78-0.28-0.75-0.84c0.04-1.03-0.33-2.37,0.18-3.02c0.54-0.68,1.94-0.2,2.96-0.22c1.68-0.04,3.36,0.06,5.04-0.04
		c1.05-0.06,1.32,0.31,1.2,1.27c-0.07,0.59-0.04,1.2-0.01,1.8c0.04,0.66,0.01,1.21-0.9,1.05c-0.54-0.1-0.55,0.28-0.55,0.67
		c0.01,2.6,0.02,5.2-0.01,7.8c-0.01,0.55,0.21,0.72,0.7,0.64c0.7-0.12,0.78,0.28,0.75,0.84c-0.04,1.03,0.33,2.37-0.18,3.02
		c-0.54,0.68-1.94,0.17-2.96,0.22C255.91,338.34,255.39,338.32,254.87,338.32z"/>
	<path class="st0" d="M336.71,321.04c1.32,0,2.64,0.03,3.96-0.01c0.57-0.02,0.78,0.16,0.75,0.74c-0.04,0.72-0.03,1.44-0.01,2.16
		c0.02,0.71,0.09,1.4-0.99,1.2c-0.49-0.09-0.45,0.32-0.45,0.63c0,2.6,0.01,5.2-0.01,7.8c0,0.51,0.14,0.76,0.67,0.67
		c0.65-0.11,0.83,0.19,0.79,0.8c-0.05,0.8-0.05,1.6,0,2.4c0.04,0.64-0.12,0.91-0.84,0.9c-2.56-0.04-5.12-0.04-7.68,0
		c-0.68,0.01-0.93-0.17-0.87-0.86c0.06-0.68,0.03-1.36,0.01-2.04c-0.02-0.71-0.09-1.4,0.99-1.2c0.49,0.09,0.45-0.32,0.45-0.63
		c0-2.6-0.01-5.2,0.01-7.8c0-0.51-0.14-0.76-0.67-0.67c-0.65,0.1-0.82-0.2-0.79-0.8c0.04-0.8,0.07-1.61-0.01-2.4
		c-0.08-0.8,0.28-0.92,0.96-0.89C334.22,321.07,335.47,321.04,336.71,321.04z"/>
	<path class="st0" d="M501.96,283.37c-0.14-4.38-1.63-8.31-4.12-11.84c-2.23-3.16-5.3-5.25-8.9-6.68c-4-1.59-8.22-1.69-12.38-1.82
		c-6.51-0.21-13.03-0.06-19.55-0.05c-1.14,0-2.09,0.93-2.09,2.06c-0.01,2.92-0.01,5.84,0,8.76c0,1.19,0.69,1.92,1.88,1.88
		c0.74-0.02,1.02,0.13,1.02,0.96c-0.04,5.68-0.03,11.35-0.01,17.03c0,0.75-0.14,1.04-0.97,1.01c-1.28-0.05-1.93,0.66-1.93,1.95
		c0,2.84,0,5.68,0,8.52c0,1.32,0.88,2.25,2.17,2.23c6.82-0.13,13.64,0.24,20.46-0.21c2.72-0.18,5.45-0.07,8.17-0.48
		c4.01-0.61,7.5-2.28,10.3-5.09c2.82-2.83,4.6-6.36,5.45-10.3c0.29-1.35,0.49-2.72,0.73-4.08c0-1.12,0-2.24,0-3.36
		C501.94,283.77,501.97,283.56,501.96,283.37z M482.26,290.95c-0.98,3-2.91,3.73-5.93,3.7c-0.68-0.01-0.53-0.45-0.53-0.82
		c-0.01-2.84,0-5.68,0-8.52s0.02-5.68-0.01-8.52c-0.01-0.64,0.12-0.91,0.84-0.89c3.05,0.1,4.73,1.15,5.61,3.91
		C483.4,283.48,483.47,287.25,482.26,290.95z"/>
	<path class="st0" d="M411.36,280.39c-0.9-5.14-3.49-9.53-7.54-13c-3.06-2.62-6.62-3.96-10.51-4.72c-1.15-0.22-2.35,0.14-3.43-0.43
		c-0.96,0-1.92,0-2.88,0c-1.03,0.61-2.21,0.26-3.31,0.42c-5.84,0.87-10.63,3.61-14.07,8.29c-4.84,6.59-5.85,14-3.57,21.84
		c1.21,4.15,3.58,7.53,6.91,10.22c1.63,1.32,3.41,2.43,5.42,3.17c3.87,1.43,7.82,1.99,11.96,1.71c2.22-0.15,4.39-0.45,6.45-1.14
		c4.34-1.45,7.8-4.11,10.57-7.82C411.56,293.32,412.52,287.01,411.36,280.39z M391.3,293.13c-0.54,1.64-1.64,2.56-3.12,2.51
		c-1.5-0.04-2.08-1.02-2.53-2.08c-0.43-1.02-0.67-2.16-0.79-3.26c-0.27-2.45-0.47-4.92-0.22-7.36c0.22-2.23,0.08-4.55,1.19-6.63
		c0.49-0.91,1.09-1.56,2.25-1.61c1.31-0.06,2.16,0.47,2.78,1.57c0.92,1.62,0.95,3.44,1.15,5.2c0.14,1.22,0.03,2.47,0.03,4.28
		C392.08,287.85,392.15,290.54,391.3,293.13z"/>
	<path class="st0" d="M223.17,279.48c-1.05-4.74-3.52-8.66-7.11-11.9c-3.08-2.77-6.75-4.2-10.79-4.9c-1.1-0.19-2.26,0.1-3.31-0.44
		c-1.04,0-2.08,0-3.12,0c-0.23,0.45-0.64,0.22-0.96,0.23c-2.93,0.1-5.74,0.76-8.35,2.04c-5.61,2.76-9.38,7.18-11.35,13.12
		c-1.36,4.12-1.51,8.3-0.73,12.56c1.05,5.7,3.89,10.22,8.58,13.62c4.4,3.18,9.45,4.23,14.73,4.2c1.45-0.01,2.97-0.09,4.46-0.37
		c2.43-0.46,4.79-1.15,6.94-2.29c2.83-1.5,5.16-3.63,7.08-6.25C223.62,293.15,224.74,286.58,223.17,279.48z M203.4,293.04
		c-0.29,1.23-1.38,2.42-2.33,2.55c-1.72,0.24-2.35-0.18-3.27-1.84c-0.59-1.07-0.69-2.23-0.86-3.37c-0.39-2.64-0.3-5.31-0.24-7.97
		c0.04-1.8,0.21-3.61,0.75-5.33c0.44-1.39,1.31-2.59,3.31-2.39c1.18,0.12,2.29,1.17,2.63,2.63c0.62,2.58,0.84,5.2,0.69,7.83
		C204.25,287.84,204,290.46,203.4,293.04z"/>
	<path class="st0" d="M222.6,320.97c-4.92-0.82-9.67,1.47-10.92,6.31c-0.84,3.23-0.25,6.08,2.07,8.57c1.38,1.49,3.15,2.17,5.02,2.72
		c1.2,0,2.4,0,3.6,0c0.08-0.08,0.15-0.21,0.23-0.22c3.85-0.47,6.82-3.88,7.2-7.82C230.21,326.12,226.94,321.69,222.6,320.97z
		 M222.6,329.96c-0.13,0.77,0.13,1.71-0.15,2.66c-0.31,1.04-0.75,1.87-1.94,1.84c-1.12-0.03-1.62-0.8-1.81-1.83
		c-0.36-1.93-0.31-3.88-0.05-5.8c0.2-1.45,1.06-2.06,2.08-1.96c1.01,0.1,1.79,1.12,1.86,2.51
		C222.63,328.19,222.6,328.99,222.6,329.96z"/>
	<path class="st0" d="M273.72,320.97c-4.92-0.82-9.67,1.47-10.92,6.31c-0.84,3.23-0.25,6.08,2.07,8.57
		c1.38,1.49,3.15,2.17,5.02,2.72c1.2,0,2.4,0,3.6,0c0.08-0.08,0.15-0.21,0.23-0.22c3.85-0.47,6.82-3.88,7.2-7.82
		C281.33,326.12,278.06,321.69,273.72,320.97z M273.6,332.57c-0.28,1-0.7,1.89-1.9,1.89c-1.21,0.01-1.73-0.84-1.89-1.88
		c-0.3-1.93-0.34-3.88,0-5.79c0.27-1.46,1.09-2.05,2.1-1.91c0.97,0.13,1.69,1.11,1.81,2.45c0,0.04,0,0.08,0,0.12
		c0,0.76,0,1.52,0,2.45C273.63,330.67,273.86,331.63,273.6,332.57z"/>
	<path class="st0" d="M418.76,334.16c-0.04,0-0.08-0.21-0.14-0.31c-0.63-1.12-1.23-2.25-1.9-3.34c-0.27-0.43,0.05-0.45,0.26-0.58
		c1.99-1.2,2.18-3.26,1.85-4.72c-0.52-2.29-2.27-3.69-4.34-3.95c-2.42-0.31-4.84-0.16-6.98-0.22c-1.4,0-2.52-0.02-3.64,0.01
		c-0.95,0.03-2.18-0.41-2.77,0.18c-0.59,0.59-0.11,1.82-0.18,2.77c-0.05,0.68-0.07,1.31,0.93,1.13c0.46-0.08,0.51,0.21,0.51,0.58
		c-0.01,2.64,0,5.28-0.01,7.92c0,0.26,0.07,0.66-0.36,0.6c-1.36-0.21-1.07,0.74-1.08,1.48c-0.01,0.64,0.02,1.28-0.01,1.92
		c-0.02,0.48,0.09,0.72,0.65,0.71c2.52-0.03,5.04-0.01,7.56-0.02c0.25,0,0.65,0.13,0.66-0.29c0.03-1.16,0.07-2.32-0.01-3.47
		c-0.04-0.58-0.67-0.17-0.99-0.34c-0.06-0.03-0.14-0.12-0.14-0.18c0-0.84-0.14-1.72,0.09-2.49c0.12-0.42,0.94-0.09,1.43-0.19
		c0.54-0.1,0.67,0.31,0.83,0.64c0.5,1.01,1.11,2,1.45,3.06c0.85,2.68,2.48,3.71,5.33,3.32c2.09-0.29,2.17-0.06,2.1-2.15
		C419.82,335.44,420.54,334.09,418.76,334.16z M411.14,328.17c-0.68,0.16-1.43,0.05-2.15,0.07c-0.32,0.01-0.39-0.2-0.39-0.47
		c0-0.8-0.08-1.61,0.02-2.39c0.15-1.13,1.11-0.05,1.38-0.48c0.88-0.04,1.62-0.09,2.12,0.56
		C412.86,326.38,412.35,327.88,411.14,328.17z"/>
	<path class="st0" d="M329.87,325.71c-0.49-2.85-2.36-3.99-4.73-4.44c-2.33-0.44-4.68-0.11-6.63-0.23c-1.5,0-2.62-0.03-3.74,0.01
		c-1.02,0.03-2.42-0.46-2.96,0.22c-0.51,0.65-0.11,1.99-0.18,3.02c-0.05,0.71,0.22,0.93,0.88,0.83c0.59-0.09,0.84,0.1,0.83,0.76
		c-0.04,2.56-0.02,5.11-0.01,7.67c0,0.38,0.02,0.78-0.53,0.68c-1.11-0.21-1.25,0.38-1.16,1.28c0.06,0.67,0.06,1.36,0,2.04
		c-0.05,0.66,0.21,0.8,0.82,0.79c1.88-0.03,3.76,0.01,5.63-0.02c1.02-0.02,2.42,0.46,2.97-0.2c0.52-0.63,0.13-1.97,0.2-3
		c0.04-0.65-0.14-0.96-0.84-0.88c-0.27,0.03-0.64,0.18-0.83-0.23c-0.51-1.09,0.14-2.18,1.33-2.15c1.98,0.05,3.96,0,5.84-0.62
		C328.87,330.52,330.26,327.96,329.87,325.71z M322.08,327.98c-0.67,0.08-1.36,0.09-2.02,0c-1.14-0.15-0.05-1.11-0.63-1.45
		c0.42-0.56-0.43-1.43,0.61-1.64c1.77-0.35,2.81-0.03,3.22,0.92C323.71,326.86,323.2,327.85,322.08,327.98z"/>
</g>
</svg>
